<svg id="Layer_1" data-name="Layer 1" xmlns="http://www.w3.org/2000/svg" viewBox="0 0 565.58 250.59"><defs><style>.cls-1{isolation:isolate;}.cls-2{fill:#be7f6e;}</style></defs><g id="electric_woman" data-name="electric woman" class="cls-1"><g class="cls-1"><path class="cls-2" d="M86.19,95.54c-1,12.07-11.73,28.05-35.87,28.05C26.86,123.59,4.25,112,3.57,84,2.72,54.57,29.41,41.82,48.11,40.8c14.45-.68,34.34,6.29,36.72,26.86H69C78.71,70.21,87.55,80.07,86.19,95.54ZM62.05,67.66H18a49.09,49.09,0,0,0,1.19,27.2c6.29,17.85,19,25.67,36.38,25,14.62-.68,27.37-10.71,29.07-24C86.7,78.2,75,67.66,62.05,67.66ZM18.36,66.3H72.59C70.38,51.51,57.12,39.61,40.46,42.84,28.9,45.05,21.42,54.74,18.36,66.3Z"/><path class="cls-2" d="M119.17,121.38v1.19H98.26v-1.19c2.55-1.53,3.74-4.08,3.74-10V13.09c0-5.95-.51-7.65-3.74-8.16V3.57l16-3.57h1.19V111.35C115.43,117.3,116.62,119.85,119.17,121.38Z"/><path class="cls-2" d="M213.86,95.54c-1,12.07-11.73,28.05-35.87,28.05-23.46,0-46.07-11.56-46.75-39.61-.85-29.41,25.84-42.16,44.54-43.18,14.45-.68,34.34,6.29,36.72,26.86H196.69C206.38,70.21,215.22,80.07,213.86,95.54ZM189.72,67.66h-44a49.09,49.09,0,0,0,1.19,27.2c6.29,17.85,19,25.67,36.38,25,14.62-.68,27.37-10.71,29.07-24C214.37,78.2,202.64,67.66,189.72,67.66ZM146,66.3h54.23c-2.21-14.79-15.47-26.69-32.13-23.46C156.57,45.05,149.09,54.74,146,66.3Z"/><path class="cls-2" d="M279.48,120.53c16.83-1.7,26-16.66,28.73-21.42l1,.51c-5.27,9.52-15.3,22.78-35.53,24C250.24,124.78,226.78,112,226.1,84c-.85-29.41,25.84-43.18,44.54-43.18,9.69,0,23.29,4.42,32.13,9l-2.55,14.11h-1C295.12,53.72,279,39.1,263,42.84c-20.91,4.76-28.56,31.62-21.42,52C247.86,112.71,262.31,122.23,279.48,120.53Z"/><path class="cls-2" d="M378.76,92.82c-3.23,16-10.37,30.77-28.22,30.77-15.13,0-24.48-9.86-24.48-29.92V42.16H316V40.8c14.45,0,15.64-15.13,15.64-23.29H345.1c0,13.09-12.92,22.78-23.12,23.29h37.57v1.36H339.49V96.22c0,14.79,4.08,26.18,18.53,24.31,11.22-1.53,16.83-15,19.89-28Z"/><path class="cls-2" d="M444.21,50.83,433.84,65.45l-1.19-.68c-.34-9.69-5.1-22.27-14.28-20.91-16.66,2.55-18.87,46.41-18.87,60.86v6.63c0,6,1.19,8.5,3.74,10v1.19H382.16v-1.19c2.72-1.53,3.91-4.08,3.91-10V53.89c0-6-.51-7.65-3.91-8.16V44.54l16-3.74h1.36V86.36C401.2,65.79,406,40.8,424,40.8,433.16,40.8,438.43,44,444.21,50.83Z"/><path class="cls-2" d="M470.39,121.38v1.19H449.31v-1.19c2.55-1.53,3.74-4.08,3.74-10V53.89c0-6-.51-7.65-3.74-8.16V44.54l16-3.74h1.19v70.55C466.48,117.3,467.67,119.85,470.39,121.38ZM451.35,19a8,8,0,1,1,8,8A8,8,0,0,1,451.35,19Z"/><path class="cls-2" d="M535.83,120.53c16.83-1.7,26-16.66,28.73-21.42l1,.51c-5.27,9.52-15.3,22.78-35.53,24C506.59,124.78,483.14,112,482.45,84,481.6,54.57,508.29,40.8,527,40.8c9.69,0,23.29,4.42,32.13,9l-2.55,14.11h-1c-4.08-10.2-20.23-24.82-36.21-21.08-20.9,4.76-28.56,31.62-21.42,52C504.21,112.71,518.66,122.23,535.83,120.53Z"/></g><g class="cls-1"><path class="cls-2" d="M124.27,167.8v1.36c-6.8,6.46-11.56,13.77-17,26.69L92.14,235.46l5.44,14.11H84.15s-20.91-54.74-21.76-56.95L48.45,237.5l5.1,12.07H40.12L19,199.93C11.9,183.27,8.33,176,0,169.16V167.8H26.18v1.36c-4.42,4.59-2.89,9.18,1,18.7L47.6,235.8l14.11-44.88c-4.25-10.54-7.31-16.32-13.94-21.76V167.8H74v1.36c-5.1,5.27-2.89,10.71,1.7,23.12l16,41.48,12.58-33.32c6.12-15.81,7.65-25.16,0-31.28V167.8Z"/><path class="cls-2" d="M214.54,205.54c0,27.2-23.29,45.05-46.07,45.05-22.95,0-42.5-13.94-42.5-37.74,0-28,23.29-45,46.07-45S214.54,182.08,214.54,205.54Zm-14.28-5.44c-5.95-20.4-21.93-34.85-41.31-29.24s-24.65,26.86-18.7,47.43c5.95,20.4,21.93,35,41.31,29.24C200.94,241.92,206.21,220.67,200.26,200.1Z"/><path class="cls-2" d="M355.47,248.38v1.19H334.56v-1.19c2.55-1.53,3.4-4.42,2.89-10-.68-5.61-3.06-34.34-3.91-43.18-1.36-12.75-6.29-27.2-19.55-24.31-15.64,3.4-17.68,29.75-17.85,47.6v19.89c0,6,1.19,8.5,3.74,10v1.19H279v-1.19c2.55-1.53,3.74-4.08,3.74-10V195.17c0-12.92-5.95-26.86-19.21-24.31-19,3.57-19.89,39.1-19.89,53.55v13.94c0,6,1.36,8.5,3.91,10v1.19H226.44v-1.19c2.55-1.53,3.91-4.08,3.91-10V180.89c0-5.95-.51-7.65-3.91-8.16v-1.19l16-3.74h1.19v37.74c1.87-18,7-37.74,27.37-37.74,13.09,0,24.31,11.22,25,29.92l.17,1.87c2-16.49,8.33-31.79,25.5-31.79,13.43,0,22.95,10,25,29.92,1.87,16.49,3.4,34.34,4.08,40.63C351.39,244.47,352.92,246.85,355.47,248.38Z"/><path class="cls-2" d="M441.48,249.57H424.31v-23.8c-4.42,15-13.77,24.82-30.09,24.82-13.94,0-27.53-6.63-29.74-18.87-2.9-17.34,7.47-27.54,20.56-33-4.42-9.86.85-30.94,23.63-30.94,14.11,0,29.07,7.48,29.07,28.39v42.16c0,6,1.19,8.5,3.74,10Zm-17.17-26.86V196.53a32.45,32.45,0,0,0-10.2-1.53c-18.53,0-43.69,9.18-36.38,39.1,2.21,9.18,12.07,14.79,20.57,14.28C413.09,247.53,420.91,235,424.31,222.71Zm-37.57-24.65a81.75,81.75,0,0,1,27.37-4.59,35.79,35.79,0,0,1,10.2,1.53v-1.19c0-12.92-5.1-24.31-17.17-24.31C391.84,169.5,381.64,184.29,386.74,198.06Z"/><path class="cls-2" d="M537.36,248.38v1.19H516.28v-1.19c2.72-1.53,3.4-4.42,2.89-10s-3.06-34.34-3.91-43.18c-1.19-12.75-7.48-27.2-22.1-24.31-19,3.74-22.61,39.27-22.61,53.55v13.94c0,6,1.19,8.5,3.91,10v1.19H453.38v-1.19c2.55-1.53,3.74-4.08,3.74-10V180.89c0-5.95-.51-7.65-3.74-8.16v-1.19l16-3.74h1.19V210c2.21-19,8-42.16,30.09-42.16,13.94,0,25.84,9.52,27.88,29.92,1.7,16.49,3.4,34.34,4.08,40.63C533.28,244.47,534.81,246.85,537.36,248.38Z"/></g></g></svg>